<svg xmlns="http://www.w3.org/2000/svg" viewBox="0 0 58 40"><g fill="#FFF"><path d="M27.6 23.8H27l-.5 1.1h.5c.1 0 .3-.1.3-.2l.3-.7c.1-.1.1-.2 0-.2zM22.2 23.8h-.6l-.5 1.1h.5c.1 0 .3-.1.3-.2l.3-.7c.1-.1.1-.2 0-.2zM35.4 23.8H35l-.2.4h.5c.2 0 .2-.1.3-.2.1-.1 0-.2-.2-.2zM16.5 23.8s-.2 0-.2.1l-.1.2-.3.6c0 .1 0 .2.1.2h.4c.1 0 .2-.1.2-.1l.4-.8c0-.1 0-.1-.1-.1l-.4-.1z"/><path d="M53.8.1H4.1c-2.2 0-4 1.8-4 4v31.6c0 2.2 1.8 4 4 4h49.6c2.2 0 4-1.8 4-4V4.1c.1-2.2-1.7-4-3.9-4zM41.9 14.5l-2.4 5.1h-4.1l2.4-5.1h4.1zm-10.8 0l-1.3 2.7h1.8l1.3-2.7h4l-2.4 5.1h-9.7l2.4-5.1h3.9zm3.3 5.4L33 22.6h-4l1.3-2.7h4.1zm-5.9 0l-1.3 2.7h-4l1.3-2.7h4zm-13.9-5.5h8.1c1.8 0 2.8 2 2.2 3.2l-.9 1.9h-3.3c-.2 0-.3-.2-.2-.4l.7-1.5c.1-.2.1-.4-.2-.4h-7.7l1.3-2.8zM3.1 19.8h11l-.4.8h-11l.4-.8zm-.5 1h11l-.4.8h-11l.4-.8zm-.8 1.8l.4-.8h11l-.4.8h-11zm12.6 2.6l-.1-1.1-.7 1.1h-.4l-.2-1.8h.4l.1 1.2.8-1.2h.4l.1 1.2.8-1.2h.5l-1.2 1.8h-.5zm2 0h-.6c-.4 0-.4-.4-.3-.6l.3-.6.2-.4c.1-.3.4-.3.6-.3h.7c.3 0 .4.3.3.5l-.5 1c-.1.3-.4.4-.7.4zm2.6 0h-.4l-.4-1h.4c.2 0 .3-.1.3-.2s0-.2-.2-.2h-.4l-.7 1.4h-.5l.8-1.8h1c.4 0 .5.4.4.7-.1.2-.2.4-.6.4l.3.7zm.6 0c-.2 0-.5-.2-.3-.6l.6-1.2h.5l-.6 1.2c-.1.1 0 .3.1.3h.6l-.2.4-.7-.1zm3.2-1.2l-.4.9c-.1.2-.3.4-.7.4h-1.2l.8-1.8h1.1c.4-.1.4.3.4.5zm-2.6-1.4h-7l2.4-5.1h3.6c.2 0 .3.2.2.4l-.7 1.5c-.1.2-.1.4.2.4h5c-.7 1.6-2.1 2.8-3.7 2.8zm4 2.6l-.1-1.1-.7 1.1H23l-.1-1.8h.4l.1 1.2.8-1.2h.4l.1 1.2.8-1.2h.5l-1.2 1.8h-.6zm.9 0l.8-1.8h.5l-.8 1.8h-.5zm1.9 0h-1.2l.8-1.8h1.1c.3 0 .4.4.3.6l-.4.9c0 .2-.2.3-.6.3zm2.9-1.4H29l-.2.4h.9l-.2.4h-.9l-.1.2c0 .1 0 .2.1.2h.9l-.2.4h-1c-.4 0-.3-.4-.3-.5l.6-1.3H30l-.1.2zm.9 1.4c-.4 0-.3-.4-.3-.5l.6-1.3h1.4l-.2.4h-.9l-.2.4h.9l-.1.3h-.9l-.1.2c0 .1 0 .2.1.2h.9l-.2.4-1-.1zm2.5.1l-.2-.5-.6.5h-.6l1.2-.9-.3-.8h.5l.2.6.7-.6h.6l-1.2 1 .3.8-.6-.1zm1.4-.7l.1-.2-.4.8h-.5l.8-1.8h.9c.5 0 .5.5.4.7-.1.2-.2.4-.7.4l-.6.1zm2.9.7h-.4l-.4-1h.4c.2 0 .3-.1.3-.2s0-.2-.2-.2h-.4l-.7 1.4h-.5l.8-1.8h1c.4 0 .5.4.4.7s-.2.4-.6.4l.3.7zm.5 0c-.4 0-.3-.4-.3-.5l.6-1.3h1.4l-.2.4h-.9l-.2.4h.9l-.2.4h-.9l-.1.2c0 .1 0 .2.1.2h.9l-.2.4-.9-.2zm2.2 0h-1.1l.2-.4h.8c.1 0 .1-.2.1-.2l-.3-.6c-.2-.3.1-.6.3-.6h1.1l-.2.4h-.7c-.1 0-.1.1-.1.2l.3.5c.1.2 0 .7-.4.7zm2.4-1.5H42c-.1 0-.1.1-.1.2l.3.5c.1.3 0 .7-.4.7h-1.1l.2-.4h.8c.1 0 .1-.2.1-.2l-.3-.6c-.2-.3.1-.6.3-.6h1.1l-.2.4zm-6.3-1.1c-1.3 0-1.7-1.3-1.5-1.8l.4-.9h9L43 22.7h-6.6zm18.1 0h-11l.4-.8h11l-.4.8zm.5-1H44l.4-.8h11l-.4.8zm.4-.9h-11l.4-.8h11l-.4.8z"/></g></svg>