<svg xmlns="http://www.w3.org/2000/svg" viewBox="0 0 58 40"><g fill="#FFF"><path d="M31.2 22.3c0 1.4.9 2.2 2.4 2.2.3 0 .7 0 1-.1v-4c-.3-.1-.8-.2-1.3-.2-1.3 0-2.1.8-2.1 2.1zM48.1 22.3c0 1.4.9 2.2 2.4 2.2.3 0 .6 0 1-.1v-4c-.3-.1-.7-.2-1.3-.2-1.2 0-2.1.8-2.1 2.1z"/><path d="M53.6.3H4.1c-2.2 0-4 1.8-4 4v31.5c0 2.2 1.8 4 4 4h49.5c2.2 0 4-1.8 4-4V4.3c0-2.3-1.8-4-4-4zM22.4 15.5c0 .1 0 .1 0 0V24.4 24v.6c0 .1-.1.1-.1.2l-.2.2-.1.2-.2.1-.2.1-.2.1-.2.1-.2.2-.2.1-.2.1h-.1l-.2.1-.2.1-.2.1-.2.1-.2.1-.2.1-.2.1-.2.1-.2.1-.2.1-.1.1-.2.1-.2.2-.2.1-.2.1-.2.1-.2.1-.2.2-.2.1-.2.1-.1.1-.2.1-.2.1-.1.2-.2.1-.2.1-.2.1-.2.1-.2.1-.2.1-.2.1-.1.1-.2.1-.2.1-.2.1-.2.2h-.1c-.1 0-.1 0-.2.1h-.1-.1c-.1-.1-.2-.1-.2-.1l-.3-.2-.6-.3-.4-.3-.6-.3-.7-.4-.6-.3-.6-.3-.6-.3-.6-.3-.2-.3-.6-.3-.7-.4L6 26l-.5-.3-.5-.3-.5-.3c-.2-.1-.3-.4-.3-.6V18.7v.3V15.3l.2.1c.1.1.3.1.4.2H5l.3.4.6.3.7.4.4.3.7.4c.1.1.3.2.4.2l.7.4.4.2.6.3.6.3.7.4c.1.1.3.1.4.2l.1.1.6.3.3.2.1.1V27.1c0 .1.1.2.1.3l.5.3h.2l.1-.1.2-.1.1-.1.1-.1V19.4c0-.1-.1-.2-.2-.3l.1-.1-.6-.3-.5-.3-.4-.2-.6-.3-.6-.3-.7-.4-.5-.3-.4-.2-.1-.1-.6-.3-.5-.3-.6-.4-.5-.3-.4-.2-.7-.4-.4-.2-.7-.4-.3-.1.1-.1.2-.3.1-.1.2-.1.2-.1.2-.1.2-.1.3-.1.1-.1.2-.1.2-.1.2-.1.2-.1.2-.1.1-.1.2-.1.2-.1.2-.1.2-.1.2-.1.1-.1.2-.1.3-.2.2-.1.2-.1.3-.1.1-.1.2-.1.2-.1.2-.1.2-.1.3-.1.1-.1.2-.1.2-.1.2-.1.2-.1.2-.1.1-.1.2-.1.2-.1.2-.1.2-.1h.5c.1 0 .2 0 .3.1l.1.1.4.2.5.3.7.4c.2.1.5.3.5.3l.5.3.5.3.5.3c.2.1.5.3.5.3.2.1.5.3.5.3.2.1.5.3.5.3.2.1.5.3.5.3l.5.3.5.3c.2.1.5.3.5.3.2.1.5.3.5.3l.4.2-.2.1V14l-.2.1-.2.1-.2.1-.2.1-.2.1-.2.1-.2.1-.2.1-.1.2-.2.1-.2.1-.1.1-.2.1-.2.1-.2.1-.2.1-.2.1-.2.1-.2.1-.2.1-.2.1-.2.1-.2.1-.2.1-.2.1-.2.1-.2.1-.1.2-.2.1-.1.1s-.1 0-.1.1-.1.1-.1.2v.5s0 .1.1.1l.1.1.4.3.1.1h.3l.1-.1.2-.1.2-.1.2-.1.2-.1.2-.1.2-.1.2-.1.2-.1.2-.1.2-.1.2-.1.2-.1.2-.1.1-.1.2-.1.2-.1.2-.1.2-.1.2-.1.2-.1.2-.1.2-.1.2-.1.2-.1.2-.1.2-.1.2-.1.2-.1h.1c-.1-.3-.1-.2-.1-.2zm14.2 10.4c-.9.3-2.1.4-3.1.4-2.7 0-4.4-1.4-4.4-3.9 0-2.4 1.6-4 4-4 .5 0 1.1.1 1.4.2v-3.5h2.1v10.8zm4.5.4H41v-1.8c1.3 0 2.3-.7 2.3-2.3 0-1.3-.9-2-2.2-2-.4 0-.9 0-1.2.2v8.7h-2.1v-10c.8-.3 2.1-.6 3.4-.6 2.5 0 4.2 1.4 4.2 3.8 0 2.5-1.6 4-4.3 4zm12.5-.4c-.9.3-2.1.4-3.2.4-2.6 0-4.4-1.4-4.4-3.9 0-2.4 1.6-4 4-4 .6 0 1.1.1 1.4.2v-3.5h2.1v10.8z"/></g></svg>