<svg xmlns="http://www.w3.org/2000/svg" width="200" height="49" viewBox="0 0 200 49"><path fill="#F1F1F2" d="M14.4 32.1c0 4.7-2.8 7.5-7 7.5S.7 36.4.7 32.3c0-4.3 2.8-7.5 7-7.5 4.3.1 6.7 3.3 6.7 7.3zm-10.3.2c0 2.8 1.3 4.8 3.5 4.8S11 35 11 32.2c0-2.6-1.2-4.8-3.4-4.8-2.3 0-3.5 2.1-3.5 4.9zM19.1 39.4l-4.6-14.3h3.6l1.7 6.1c.5 1.7.9 3.3 1.3 5.1h.1c.4-1.7.8-3.4 1.3-5.1l1.8-6.1h3.4l-4.8 14.3h-3.8zM37 33.4h-5.3v3.4h5.9v2.7h-9.1V25.1h8.8v2.7h-5.6v3H37v2.6zM38.8 25.3c1-.2 2.6-.3 4.3-.3 2.1 0 3.6.3 4.6 1.1.9.7 1.3 1.7 1.3 3 0 1.8-1.3 3.1-2.5 3.5v.1c1 .4 1.6 1.3 1.9 2.7.4 1.6.9 3.5 1.1 4.1h-3.3c-.2-.4-.6-1.6-1-3.3-.4-1.8-1-2.3-2.4-2.3h-1v5.6h-3.2V25.3zm3.2 6.2h1.3c1.6 0 2.6-.8 2.6-2.1s-.9-2-2.4-2c-.8 0-1.2 0-1.5.1v4zM61 39.1c-.6.3-1.9.6-3.7.6-5 0-7.5-3.1-7.5-7.2 0-4.9 3.5-7.6 7.8-7.6 1.7 0 3 .3 3.5.6l-.7 2.6c-.6-.3-1.6-.5-2.7-.5-2.6 0-4.5 1.6-4.5 4.7 0 2.9 1.7 4.7 4.6 4.7 1 0 2.1-.2 2.7-.5l.5 2.6zM62.2 25.1h3.2v11.6h5.7v2.7h-8.9V25.1zM85.2 32.1c0 4.7-2.8 7.5-7 7.5s-6.7-3.2-6.7-7.3c0-4.3 2.8-7.5 7-7.5 4.3.1 6.7 3.3 6.7 7.3zm-10.3.2c0 2.8 1.3 4.8 3.5 4.8s3.4-2.1 3.4-4.9c0-2.6-1.2-4.8-3.4-4.8s-3.5 2.1-3.5 4.9zM97.1 39.1c-.6.3-1.9.6-3.7.6-5 0-7.5-3.1-7.5-7.2 0-4.9 3.5-7.6 7.8-7.6 1.7 0 3 .3 3.5.6l-.7 2.6c-.6-.3-1.6-.5-2.7-.5-2.6 0-4.5 1.6-4.5 4.7 0 2.9 1.7 4.7 4.6 4.7 1 0 2.1-.2 2.7-.5l.5 2.6zM98.4 25.1h3.2v6.3c.3-.6.7-1.1 1-1.6l3.2-4.8h4l-4.7 6.1 5 8.2h-3.8l-3.5-6.2-1.2 1.5v4.7h-3.2V25.1zM119 33.4h-5.3v3.4h5.9v2.7h-9.1V25.1h8.8v2.7h-5.6v3h5.3v2.6zM120.9 25.3c1-.2 2.6-.3 4.3-.3 2.1 0 3.6.3 4.6 1.1.9.7 1.3 1.7 1.3 3 0 1.8-1.3 3.1-2.5 3.5v.1c1 .4 1.6 1.3 1.9 2.7.4 1.6.9 3.5 1.1 4.1h-3.3c-.2-.4-.6-1.6-1-3.3-.4-1.8-1-2.3-2.4-2.3h-1v5.6h-3.2V25.3zm3.2 6.2h1.3c1.6 0 2.6-.8 2.6-2.1s-.9-2-2.4-2c-.8 0-1.2 0-1.5.1v4zM132.6 36.1c.9.4 2.2.9 3.6.9 1.5 0 2.3-.6 2.3-1.6 0-.9-.7-1.4-2.4-2-2.4-.9-4-2.2-4-4.3 0-2.4 2.1-4.3 5.4-4.3 1.6 0 2.8.3 3.7.7l-.7 2.6c-.6-.3-1.6-.7-3-.7s-2.1.7-2.1 1.4c0 .9.8 1.3 2.7 2 2.5.9 3.7 2.3 3.7 4.3 0 2.4-1.8 4.4-5.8 4.4-1.6 0-3.3-.4-4.1-.9l.7-2.5z"/><path fill="#908F90" d="M148.7 25.5v8.2c0 2.5 1 3.7 2.6 3.7 1.7 0 2.6-1.2 2.6-3.7v-8.2h3.2v8c0 4.4-2.2 6.5-6 6.5-3.6 0-5.7-2-5.7-6.6v-8h3.3zM159.2 25.5h3.2v6.3c.3-.6.7-1.1 1-1.6l3.2-4.8h4l-4.7 6.1 5 8.2h-3.8l-3.5-6.2-1.2 1.5v4.7h-3.2V25.5z"/><path fill-rule="evenodd" clip-rule="evenodd" fill="#D0202D" d="M185.3 36.3c.7 3 1 6.2 1 9.8h13.6c-.2-4.3-1-8.4-2.3-12.2l-12.3 2.4zM181.7 26.8c1.4 2.6 2.5 5.4 3.3 8.6l12.2-2.5c-1.4-3.7-3.2-7.2-5.4-10.4l-10.1 4.3zM183.8 13.5l-7.9 5.5c2 2 3.8 4.4 5.4 7l10-4.3c-2.2-3.1-4.7-5.8-7.5-8.2z"/><path fill-rule="evenodd" clip-rule="evenodd" fill="#1258A4" d="M174.1 7.1l-5.8 6c2.4 1.4 4.8 3.1 6.9 5.2l7.8-5.4c-2.7-2.3-5.7-4.2-8.9-5.8zM163.1 3.5l-3.8 5.8c2.7.8 5.4 1.9 8.1 3.3l5.7-5.9c-3.1-1.5-6.5-2.6-10-3.2zM155.2 2.7c-1.2 0-2.3 0-3.5.1l-1.9 4.9c2.7.1 5.6.4 8.5 1.2l3.7-5.7c-2.2-.3-4.4-.5-6.8-.5zM140.7 5.4l-.7 3.7c2.7-.8 5.6-1.3 8.8-1.4l1.9-4.8c-3.8.5-7.1 1.3-10 2.5zM129.6 12c-4.8 4.2-6.9 8.2-6.9 8.2s2.5-3 6.9-6V12zM130.6 11.2v2.4c2.4-1.5 5.2-3 8.4-4.1l.6-3.7c-3.6 1.5-6.6 3.5-9 5.4z"/></svg>