<?xml version="1.0" encoding="utf-8"?>
<!-- Generator: Adobe Illustrator 23.0.1, SVG Export Plug-In . SVG Version: 6.00 Build 0)  -->
<svg version="1.1" id="v12" xmlns="http://www.w3.org/2000/svg" xmlns:xlink="http://www.w3.org/1999/xlink" x="0px" y="0px"
	 viewBox="0 0 176.18 121.41" style="enable-background:new 0 0 176.18 121.41;" xml:space="preserve">
<style type="text/css">
	.st0{fill:#FFFFFF;}
</style>
<g>
	<path class="st0" d="M25.19,63.41c0,1.25,1.06,1.55,2.25,1.55c2.87,0,2.97-2.07,2.97-2.8v-1.25c-0.62,0.5-1.91,0.52-3.05,0.71
		C26.22,61.83,25.19,62.19,25.19,63.41z"/>
	<path class="st0" d="M56.36,55.66c-3.5,0-4.73,2.65-4.73,5.16c0,2.51,1.23,5.16,4.73,5.16c3.14,0,4.42-2.65,4.42-5.16
		C60.78,58.31,59.5,55.66,56.36,55.66z"/>
	<path class="st0" d="M116.37,63.41c0,1.25,1.06,1.55,2.25,1.55c2.87,0,2.97-2.07,2.97-2.8v-1.25c-0.62,0.5-1.91,0.52-3.05,0.71
		C117.4,61.83,116.37,62.19,116.37,63.41z"/>
	<path class="st0" d="M12.45,52.93H9.3v5.04h3.15c1.89,0,3.57-0.38,3.57-2.52C16.02,53.3,14.34,52.93,12.45,52.93z"/>
	<path class="st0" d="M164.33,56.89c-2.32,0-3,1.65-3.05,2.59h5.97C166.91,57.78,166.11,56.89,164.33,56.89z"/>
	<path class="st0" d="M164.13,0H12.05C5.42,0,0,5.42,0,12.05v97.31c0,6.63,5.42,12.05,12.05,12.05h152.08
		c6.63,0,12.05-5.42,12.05-12.05V12.05C176.18,5.42,170.76,0,164.13,0z M13.56,60.84H9.3v6.03H5.24V50.05h8.32
		c4.6,0,6.38,2.66,6.38,5.4C19.94,58.18,18.16,60.84,13.56,60.84z M30.82,66.88c-0.13-0.38-0.23-0.78-0.26-1.18
		c-1.16,1.11-2.87,1.51-4.5,1.51c-2.53,0-4.55-1.15-4.55-3.65c0-2.76,2.27-3.42,4.55-3.7c2.25-0.31,4.34-0.24,4.34-1.6
		c0-1.44-1.09-1.65-2.38-1.65c-1.4,0-2.3,0.52-2.43,1.84h-3.67c0.21-3.13,3.28-4.08,6.28-4.08c2.66,0,5.86,0.54,5.86,3.46v6.34
		c0,1.11,0.13,2.21,0.47,2.71H30.82z M43.51,68.41c-0.8,1.96-2.07,2.76-4.6,2.76c-0.75,0-1.5-0.05-2.25-0.12v-2.76
		c0.7,0.05,1.42,0.14,2.14,0.12c1.27-0.12,1.68-1.32,1.27-2.29l-4.7-11.43h3.93l3.02,8.34h0.05l2.92-8.34h3.8L43.51,68.41z
		 M56.36,67.23c-2.17,0-4.05-1.01-4.81-2.65h-0.05v2.3h-1.52V50.13h1.65v6.94h0.05c0.71-1.74,2.67-2.65,4.68-2.65
		c4.11,0,6.07,2.98,6.07,6.4C62.43,64.25,60.47,67.23,56.36,67.23z M69.62,68.73c-0.94,2.04-1.49,2.63-3.56,2.63
		c-0.65-0.02-0.99-0.02-1.26-0.12v-1.24c0.39,0.07,0.76,0.12,1.12,0.12c1.46,0,1.8-0.77,2.35-1.9l0.58-1.38l-5.39-12.05h1.75
		l4.45,10.32l4.16-10.32h1.65L69.62,68.73z M89.32,53.16H80.4v3.89h7.72v2.87H80.4v6.95h-4.06V50.05h12.97V53.16z M95.05,66.88
		h-3.67V54.7h3.67V66.88z M95.05,52.81h-3.67v-2.76h3.67V52.81z M110.48,66.88h-3.67V60c0-2-0.65-2.99-2.35-2.99
		c-1.99,0-2.84,1.01-2.84,3.49v6.39h-3.67V54.7h3.49v1.7h0.08c0.93-1.37,2.53-2.03,4.08-2.03c3.9,0,4.88,2,4.88,5.02V66.88z
		 M122,66.88c-0.13-0.38-0.23-0.78-0.26-1.18c-1.16,1.11-2.87,1.51-4.49,1.51c-2.53,0-4.55-1.15-4.55-3.65
		c0-2.76,2.27-3.42,4.55-3.7c2.25-0.31,4.34-0.24,4.34-1.6c0-1.44-1.09-1.65-2.38-1.65c-1.39,0-2.3,0.52-2.43,1.84h-3.67
		c0.21-3.13,3.28-4.08,6.28-4.08c2.66,0,5.86,0.54,5.86,3.46v6.34c0,1.11,0.13,2.21,0.47,2.71H122z M140.63,66.88h-3.67V60
		c0-2-0.65-2.99-2.35-2.99c-1.99,0-2.84,1.01-2.84,3.49v6.39h-3.67V54.7h3.49v1.7h0.08c0.93-1.37,2.53-2.03,4.08-2.03
		c3.9,0,4.88,2,4.88,5.02V66.88z M149.75,67.21c-4.03,0-6.74-2.59-6.74-6.24c0-3.79,2.48-6.6,6.82-6.6c3.15,0,6.05,1.51,6.28,4.62
		h-3.59c-0.23-1.37-1.19-2.1-2.71-2.1c-2.35,0-3.13,2.17-3.13,3.96c0,1.74,0.75,3.84,3.05,3.84c1.71,0,2.69-0.99,2.92-2.47h3.54
		C155.72,65.44,153.27,67.21,149.75,67.21z M170.91,61.6h-9.64c0.1,2.12,1.24,3.09,3.28,3.09c1.47,0,2.66-0.82,2.89-1.58h3.23
		c-1.03,2.87-3.23,4.1-6.25,4.1c-4.21,0-6.82-2.64-6.82-6.41c0-3.65,2.76-6.43,6.82-6.43C168.98,54.37,171.17,57.85,170.91,61.6z"/>
</g>
</svg>
