<?xml version="1.0" encoding="utf-8"?>
<!-- Generator: Adobe Illustrator 23.0.1, SVG Export Plug-In . SVG Version: 6.00 Build 0)  -->
<svg version="1.1" id="Layer_1" xmlns="http://www.w3.org/2000/svg" xmlns:xlink="http://www.w3.org/1999/xlink" x="0px" y="0px"
	 viewBox="0 0 429 490" style="enable-background:new 0 0 429 490;" xml:space="preserve">
<style type="text/css">
	.st0{fill:#0057A8;}
</style>
<g>
	<path class="st0" d="M43.97,410.22c0,2.85-0.49,5.5-1.47,7.95s-2.37,4.58-4.15,6.4s-3.94,3.23-6.45,4.26
		c-2.52,1.03-5.31,1.54-8.37,1.54c-3.07,0-5.86-0.51-8.39-1.54c-2.52-1.03-4.68-2.45-6.48-4.26s-3.18-3.94-4.17-6.4
		c-0.98-2.45-1.47-5.1-1.47-7.95c0-2.85,0.49-5.5,1.47-7.95c0.98-2.45,2.37-4.58,4.17-6.38c1.79-1.8,3.95-3.22,6.48-4.25
		c2.52-1.03,5.32-1.54,8.39-1.54c3.07,0,5.86,0.52,8.37,1.55c2.52,1.04,4.67,2.46,6.45,4.26c1.79,1.8,3.17,3.93,4.15,6.38
		C43.48,404.75,43.97,407.39,43.97,410.22z M34.61,410.22c0-1.95-0.25-3.7-0.76-5.26c-0.51-1.56-1.23-2.88-2.18-3.96
		c-0.95-1.08-2.11-1.91-3.48-2.49c-1.37-0.58-2.93-0.87-4.68-0.87c-1.77,0-3.34,0.29-4.72,0.87c-1.38,0.58-2.54,1.41-3.49,2.49
		c-0.95,1.08-1.67,2.4-2.18,3.96c-0.5,1.56-0.76,3.31-0.76,5.26c0,1.96,0.25,3.73,0.76,5.29c0.5,1.56,1.23,2.88,2.18,3.96
		c0.95,1.08,2.11,1.91,3.49,2.47c1.38,0.57,2.95,0.85,4.72,0.85c1.75,0,3.31-0.28,4.68-0.85c1.37-0.57,2.53-1.39,3.48-2.47
		c0.95-1.08,1.67-2.4,2.18-3.96C34.36,413.95,34.61,412.19,34.61,410.22z"/>
	<path class="st0" d="M83.27,390.53l-15.8,39.41H59.2l-15.8-39.41h7.36c0.79,0,1.43,0.18,1.92,0.55c0.49,0.37,0.86,0.84,1.11,1.42
		l7.63,21.1c0.36,0.92,0.71,1.92,1.05,3.02c0.34,1.09,0.67,2.23,0.97,3.42c0.25-1.19,0.54-2.33,0.85-3.42s0.65-2.1,1.01-3.02
		l7.57-21.1c0.2-0.5,0.55-0.96,1.07-1.37c0.51-0.41,1.15-0.61,1.91-0.61H83.27z"/>
	<path class="st0" d="M95.58,397.57v9.2h12.39v6.76H95.58v9.39h16.17v7.03H86.38v-39.41h25.37v7.03H95.58z"/>
	<path class="st0" d="M149.62,429.94h-8.28c-1.53,0-2.63-0.58-3.3-1.73l-6.55-11.44c-0.31-0.49-0.65-0.84-1.03-1.07
		c-0.38-0.22-0.92-0.34-1.62-0.34h-2.33v14.58h-9.14v-39.41h12.82c2.85,0,5.28,0.29,7.29,0.88c2.01,0.59,3.65,1.4,4.92,2.45
		c1.27,1.05,2.19,2.28,2.77,3.71c0.58,1.42,0.87,2.98,0.87,4.65c0,1.28-0.17,2.49-0.51,3.63c-0.34,1.14-0.85,2.19-1.51,3.15
		c-0.67,0.96-1.49,1.83-2.48,2.58c-0.98,0.76-2.11,1.38-3.39,1.87c0.6,0.31,1.15,0.69,1.68,1.15c0.52,0.46,0.99,1,1.41,1.64
		L149.62,429.94z M130.2,409.06c1.24,0,2.3-0.16,3.18-0.47c0.87-0.32,1.59-0.75,2.15-1.31c0.56-0.56,0.96-1.21,1.22-1.96
		c0.25-0.75,0.38-1.55,0.38-2.42c0-1.73-0.56-3.08-1.69-4.06c-1.13-0.97-2.87-1.46-5.23-1.46h-3.68v11.69H130.2z"/>
	<path class="st0" d="M178.81,419.75c0.22,0,0.43,0.04,0.65,0.12s0.42,0.22,0.62,0.42l3.62,3.81c-1.59,2.07-3.58,3.64-5.96,4.69
		s-5.22,1.58-8.48,1.58c-2.99,0-5.68-0.51-8.05-1.53c-2.37-1.02-4.38-2.42-6.03-4.22c-1.65-1.79-2.92-3.92-3.8-6.38
		c-0.88-2.46-1.33-5.13-1.33-8.02c0-2.94,0.48-5.64,1.43-8.1c0.96-2.46,2.3-4.58,4.03-6.37c1.73-1.79,3.8-3.17,6.22-4.17
		c2.42-0.99,5.08-1.49,7.98-1.49c1.48,0,2.87,0.13,4.18,0.39c1.31,0.26,2.53,0.62,3.67,1.08c1.14,0.46,2.18,1.01,3.14,1.66
		c0.96,0.65,1.8,1.35,2.54,2.11l-3.08,4.14c-0.2,0.25-0.43,0.48-0.7,0.69s-0.65,0.31-1.14,0.31c-0.32,0-0.63-0.07-0.92-0.22
		c-0.29-0.14-0.6-0.32-0.92-0.53c-0.32-0.21-0.68-0.43-1.07-0.68c-0.39-0.24-0.85-0.47-1.38-0.68s-1.15-0.38-1.87-0.53
		s-1.55-0.22-2.5-0.22c-1.51,0-2.9,0.28-4.15,0.84c-1.25,0.56-2.34,1.38-3.25,2.45c-0.91,1.07-1.61,2.39-2.11,3.95
		c-0.5,1.56-0.74,3.34-0.74,5.34c0,2.02,0.27,3.81,0.83,5.38c0.55,1.57,1.3,2.89,2.25,3.96c0.95,1.07,2.05,1.89,3.31,2.45
		c1.26,0.56,2.61,0.84,4.06,0.84c0.83,0,1.59-0.04,2.27-0.12c0.69-0.08,1.33-0.22,1.92-0.41s1.15-0.44,1.68-0.76
		c0.52-0.32,1.05-0.72,1.6-1.2c0.22-0.18,0.45-0.33,0.7-0.45C178.28,419.8,178.54,419.75,178.81,419.75z"/>
	<path class="st0" d="M211.45,422.64v7.3h-23.75v-39.41h9.14v32.11H211.45z"/>
	<path class="st0" d="M253.81,410.22c0,2.85-0.49,5.5-1.47,7.95s-2.37,4.58-4.15,6.4s-3.94,3.23-6.45,4.26
		c-2.52,1.03-5.31,1.54-8.37,1.54s-5.86-0.51-8.38-1.54c-2.52-1.03-4.68-2.45-6.48-4.26c-1.79-1.81-3.18-3.94-4.17-6.4
		s-1.47-5.1-1.47-7.95c0-2.85,0.49-5.5,1.47-7.95c0.98-2.45,2.37-4.58,4.17-6.38c1.79-1.8,3.95-3.22,6.48-4.25
		c2.52-1.03,5.32-1.54,8.38-1.54s5.86,0.52,8.37,1.55c2.52,1.04,4.67,2.46,6.45,4.26c1.79,1.8,3.17,3.93,4.15,6.38
		C253.32,404.75,253.81,407.39,253.81,410.22z M244.45,410.22c0-1.95-0.25-3.7-0.76-5.26c-0.5-1.56-1.23-2.88-2.18-3.96
		c-0.95-1.08-2.11-1.91-3.48-2.49s-2.93-0.87-4.68-0.87c-1.77,0-3.34,0.29-4.72,0.87c-1.38,0.58-2.54,1.41-3.49,2.49
		c-0.95,1.08-1.67,2.4-2.18,3.96c-0.51,1.56-0.76,3.31-0.76,5.26c0,1.96,0.25,3.73,0.76,5.29c0.5,1.56,1.23,2.88,2.18,3.96
		c0.95,1.08,2.11,1.91,3.49,2.47c1.38,0.57,2.95,0.85,4.72,0.85c1.75,0,3.31-0.28,4.68-0.85c1.37-0.57,2.53-1.39,3.48-2.47
		c0.95-1.08,1.67-2.4,2.18-3.96C244.2,413.95,244.45,412.19,244.45,410.22z"/>
	<path class="st0" d="M285.76,419.75c0.22,0,0.43,0.04,0.65,0.12s0.42,0.22,0.62,0.42l3.63,3.81c-1.59,2.07-3.58,3.64-5.96,4.69
		s-5.22,1.58-8.48,1.58c-2.99,0-5.68-0.51-8.05-1.53c-2.37-1.02-4.38-2.42-6.03-4.22c-1.65-1.79-2.92-3.92-3.8-6.38
		c-0.88-2.46-1.33-5.13-1.33-8.02c0-2.94,0.48-5.64,1.43-8.1c0.96-2.46,2.3-4.58,4.03-6.37c1.73-1.79,3.8-3.17,6.22-4.17
		c2.42-0.99,5.08-1.49,7.98-1.49c1.48,0,2.87,0.13,4.18,0.39c1.31,0.26,2.53,0.62,3.67,1.08s2.18,1.01,3.14,1.66
		c0.96,0.65,1.8,1.35,2.54,2.11l-3.08,4.14c-0.2,0.25-0.43,0.48-0.7,0.69s-0.65,0.31-1.14,0.31c-0.33,0-0.63-0.07-0.92-0.22
		c-0.29-0.14-0.59-0.32-0.92-0.53c-0.32-0.21-0.68-0.43-1.07-0.68c-0.39-0.24-0.85-0.47-1.38-0.68c-0.53-0.21-1.15-0.38-1.87-0.53
		c-0.71-0.14-1.55-0.22-2.5-0.22c-1.52,0-2.9,0.28-4.15,0.84c-1.25,0.56-2.34,1.38-3.25,2.45c-0.91,1.07-1.61,2.39-2.11,3.95
		c-0.5,1.56-0.74,3.34-0.74,5.34c0,2.02,0.27,3.81,0.83,5.38c0.55,1.57,1.3,2.89,2.25,3.96c0.95,1.07,2.05,1.89,3.31,2.45
		c1.26,0.56,2.61,0.84,4.06,0.84c0.83,0,1.59-0.04,2.27-0.12s1.33-0.22,1.92-0.41c0.59-0.19,1.15-0.44,1.68-0.76
		c0.52-0.32,1.05-0.72,1.6-1.2c0.22-0.18,0.45-0.33,0.7-0.45C285.22,419.8,285.49,419.75,285.76,419.75z"/>
	<path class="st0" d="M303.8,406.49h1.46c1.35,0,2.33-0.42,2.92-1.27l8.87-12.88c0.52-0.68,1.09-1.16,1.69-1.42
		c0.6-0.26,1.36-0.39,2.26-0.39h7.95l-11.69,15.93c-0.83,1.1-1.72,1.89-2.68,2.38c0.69,0.25,1.31,0.6,1.87,1.05
		c0.56,0.45,1.08,1.04,1.57,1.76l11.9,18.29h-8.17c-0.52,0-0.97-0.04-1.34-0.11c-0.37-0.07-0.69-0.18-0.96-0.32s-0.5-0.32-0.7-0.53
		c-0.2-0.21-0.39-0.45-0.57-0.72l-8.93-13.71c-0.32-0.5-0.74-0.86-1.23-1.07c-0.5-0.21-1.17-0.31-2.02-0.31h-2.22v16.77h-9.14
		v-39.41h9.14V406.49z"/>
	<path class="st0" d="M342.07,429.94h-9.2v-39.41h9.2V429.94z"/>
	<path class="st0" d="M384.1,390.53v39.41h-4.76c-0.7,0-1.29-0.11-1.77-0.34c-0.48-0.23-0.95-0.62-1.42-1.18l-18.58-23.5
		c0.07,0.7,0.12,1.38,0.15,2.04c0.03,0.66,0.04,1.28,0.04,1.85v21.13h-8.06v-39.41h4.81c0.4,0,0.73,0.02,1,0.05s0.51,0.1,0.73,0.2
		c0.22,0.1,0.42,0.24,0.62,0.42c0.2,0.18,0.42,0.42,0.68,0.73l18.74,23.67c-0.09-0.76-0.15-1.49-0.19-2.2
		c-0.04-0.71-0.05-1.38-0.05-2.01v-20.85H384.1z"/>
	<path class="st0" d="M410.66,409.52h14.01v16.63c-2.02,1.48-4.17,2.55-6.45,3.22s-4.67,1-7.15,1c-3.25,0-6.2-0.51-8.86-1.53
		c-2.66-1.02-4.94-2.42-6.83-4.22c-1.89-1.79-3.35-3.92-4.38-6.38c-1.03-2.46-1.54-5.13-1.54-8.02c0-2.94,0.49-5.64,1.46-8.1
		c0.97-2.46,2.37-4.58,4.18-6.37c1.81-1.79,4-3.17,6.57-4.17c2.57-0.99,5.44-1.49,8.62-1.49c1.64,0,3.18,0.13,4.63,0.41
		s2.77,0.64,3.99,1.11c1.22,0.47,2.33,1.03,3.34,1.68s1.91,1.35,2.71,2.11l-2.65,4.03c-0.42,0.63-0.95,1.02-1.61,1.16
		c-0.66,0.14-1.37-0.02-2.12-0.49c-0.72-0.43-1.4-0.81-2.04-1.12c-0.64-0.32-1.29-0.57-1.96-0.77s-1.37-0.34-2.11-0.43
		c-0.74-0.09-1.57-0.14-2.49-0.14c-1.71,0-3.25,0.3-4.63,0.91c-1.37,0.6-2.54,1.46-3.5,2.56c-0.96,1.1-1.71,2.42-2.23,3.96
		c-0.52,1.54-0.78,3.26-0.78,5.15c0,2.09,0.29,3.95,0.87,5.57s1.39,2.99,2.45,4.11c1.05,1.12,2.32,1.97,3.79,2.56
		c1.47,0.59,3.1,0.88,4.88,0.88c1.1,0,2.1-0.11,2.99-0.33c0.89-0.22,1.76-0.5,2.61-0.87v-5.98h-3.89c-0.58,0-1.03-0.15-1.35-0.46
		c-0.32-0.31-0.49-0.69-0.49-1.16V409.52z"/>
	<path class="st0" d="M43.59,484.04h-7.09c-0.79,0-1.43-0.18-1.92-0.55c-0.49-0.37-0.86-0.84-1.11-1.42l-2.33-6.87H16.17l-2.33,6.87
		c-0.2,0.5-0.55,0.96-1.07,1.37c-0.51,0.41-1.15,0.61-1.91,0.61H3.73l15.25-39.41h9.36L43.59,484.04z M29.07,468.97l-3.65-10.79
		c-0.27-0.68-0.56-1.49-0.87-2.42c-0.31-0.93-0.61-1.93-0.92-3.02c-0.27,1.1-0.56,2.12-0.87,3.06c-0.31,0.94-0.6,1.75-0.87,2.43
		l-3.62,10.74H29.07z"/>
	<path class="st0" d="M82.03,444.63v39.41h-4.76c-0.7,0-1.29-0.11-1.77-0.34c-0.48-0.23-0.95-0.62-1.42-1.18l-18.58-23.5
		c0.07,0.7,0.12,1.38,0.15,2.04c0.03,0.66,0.04,1.28,0.04,1.85v21.13h-8.06v-39.41h4.81c0.4,0,0.73,0.02,1,0.05s0.51,0.1,0.73,0.2
		c0.22,0.1,0.42,0.24,0.62,0.42c0.2,0.18,0.42,0.42,0.68,0.73l18.74,23.67c-0.09-0.76-0.15-1.49-0.19-2.2
		c-0.04-0.71-0.05-1.38-0.05-2.01v-20.85H82.03z"/>
	<path class="st0" d="M126.33,464.32c0,2.85-0.49,5.48-1.47,7.88c-0.98,2.41-2.37,4.49-4.15,6.25c-1.79,1.76-3.94,3.13-6.45,4.11
		c-2.52,0.98-5.31,1.47-8.37,1.47H90.58v-39.41h15.31c3.07,0,5.86,0.5,8.37,1.49c2.52,0.99,4.67,2.36,6.45,4.11s3.17,3.83,4.15,6.23
		C125.84,458.87,126.33,461.49,126.33,464.32z M116.98,464.32c0-1.95-0.25-3.71-0.76-5.27c-0.5-1.57-1.23-2.9-2.18-3.99
		c-0.95-1.09-2.11-1.93-3.48-2.52c-1.37-0.59-2.93-0.88-4.68-0.88h-6.11v25.34h6.11c1.75,0,3.31-0.29,4.68-0.88
		c1.37-0.58,2.53-1.42,3.48-2.51s1.67-2.42,2.18-3.99C116.72,468.05,116.98,466.29,116.98,464.32z"/>
	<path class="st0" d="M190.38,444.63v39.41h-8.06v-22.67c0-0.52,0.01-1.09,0.04-1.7s0.08-1.24,0.15-1.87l-10.47,20.26
		c-0.32,0.63-0.76,1.11-1.31,1.43c-0.55,0.32-1.18,0.49-1.88,0.49h-1.24c-0.7,0-1.33-0.16-1.88-0.49c-0.55-0.33-0.99-0.8-1.31-1.43
		l-10.47-20.31c0.05,0.65,0.1,1.29,0.14,1.91c0.04,0.62,0.05,1.19,0.05,1.72v22.67h-8.06v-39.41h6.98c0.4,0,0.74,0.01,1.04,0.03
		c0.3,0.02,0.56,0.07,0.8,0.16c0.23,0.09,0.45,0.23,0.64,0.42s0.37,0.46,0.55,0.8l10.14,19.99c0.36,0.69,0.71,1.4,1.04,2.14
		c0.33,0.74,0.65,1.5,0.96,2.27c0.31-0.79,0.63-1.57,0.96-2.33c0.33-0.76,0.69-1.48,1.07-2.16l10.12-19.91
		c0.18-0.34,0.36-0.61,0.55-0.8s0.4-0.33,0.64-0.42c0.23-0.09,0.5-0.14,0.8-0.16c0.3-0.02,0.64-0.03,1.04-0.03H190.38z"/>
	<path class="st0" d="M237.61,464.32c0,2.85-0.49,5.5-1.47,7.95s-2.37,4.58-4.15,6.4s-3.94,3.23-6.45,4.26
		c-2.52,1.03-5.31,1.54-8.37,1.54s-5.86-0.51-8.38-1.54c-2.52-1.03-4.68-2.45-6.48-4.26s-3.18-3.94-4.17-6.4
		c-0.98-2.45-1.47-5.1-1.47-7.95c0-2.85,0.49-5.5,1.47-7.95c0.98-2.45,2.37-4.58,4.17-6.38c1.79-1.8,3.95-3.22,6.48-4.25
		c2.52-1.03,5.32-1.54,8.38-1.54s5.86,0.52,8.37,1.55c2.52,1.04,4.67,2.46,6.45,4.26c1.79,1.8,3.17,3.93,4.15,6.38
		C237.12,458.85,237.61,461.49,237.61,464.32z M228.25,464.32c0-1.95-0.25-3.7-0.76-5.26c-0.5-1.56-1.23-2.88-2.18-3.96
		c-0.95-1.08-2.11-1.91-3.48-2.49s-2.93-0.87-4.68-0.87c-1.77,0-3.34,0.29-4.72,0.87c-1.38,0.58-2.54,1.41-3.49,2.49
		c-0.95,1.08-1.67,2.4-2.18,3.96c-0.5,1.56-0.76,3.31-0.76,5.26c0,1.96,0.25,3.73,0.76,5.29c0.5,1.56,1.23,2.88,2.18,3.96
		c0.95,1.08,2.11,1.91,3.49,2.47c1.38,0.57,2.95,0.85,4.72,0.85c1.75,0,3.31-0.28,4.68-0.85c1.37-0.57,2.53-1.39,3.48-2.47
		c0.95-1.08,1.67-2.4,2.18-3.96C228,468.05,228.25,466.29,228.25,464.32z"/>
	<path class="st0" d="M279.67,464.32c0,2.85-0.49,5.48-1.47,7.88c-0.98,2.41-2.37,4.49-4.15,6.25c-1.79,1.76-3.94,3.13-6.45,4.11
		c-2.51,0.98-5.31,1.47-8.37,1.47h-15.31v-39.41h15.31c3.07,0,5.86,0.5,8.37,1.49c2.52,0.99,4.67,2.36,6.45,4.11
		s3.17,3.83,4.15,6.23C279.18,458.87,279.67,461.49,279.67,464.32z M270.31,464.32c0-1.95-0.25-3.71-0.76-5.27
		c-0.51-1.57-1.23-2.9-2.18-3.99c-0.95-1.09-2.11-1.93-3.48-2.52c-1.37-0.59-2.93-0.88-4.68-0.88h-6.11v25.34h6.11
		c1.75,0,3.31-0.29,4.68-0.88c1.37-0.58,2.53-1.42,3.48-2.51s1.67-2.42,2.18-3.99C270.06,468.05,270.31,466.29,270.31,464.32z"/>
	<path class="st0" d="M321.76,464.32c0,2.85-0.49,5.48-1.47,7.88c-0.98,2.41-2.37,4.49-4.15,6.25c-1.79,1.76-3.94,3.13-6.45,4.11
		c-2.51,0.98-5.31,1.47-8.37,1.47H286v-39.41h15.31c3.07,0,5.86,0.5,8.37,1.49c2.52,0.99,4.67,2.36,6.45,4.11s3.17,3.83,4.15,6.23
		C321.26,458.87,321.76,461.49,321.76,464.32z M312.4,464.32c0-1.95-0.25-3.71-0.76-5.27c-0.51-1.57-1.23-2.9-2.18-3.99
		c-0.95-1.09-2.11-1.93-3.48-2.52c-1.37-0.59-2.93-0.88-4.68-0.88h-6.11v25.34h6.11c1.75,0,3.31-0.29,4.68-0.88
		c1.37-0.58,2.53-1.42,3.48-2.51s1.67-2.42,2.18-3.99C312.14,468.05,312.4,466.29,312.4,464.32z"/>
	<path class="st0" d="M337.28,484.04h-9.2v-39.41h9.2V484.04z"/>
	<path class="st0" d="M380.23,444.63v39.41h-4.76c-0.7,0-1.29-0.11-1.77-0.34c-0.48-0.23-0.95-0.62-1.42-1.18l-18.58-23.5
		c0.07,0.7,0.12,1.38,0.15,2.04c0.03,0.66,0.04,1.28,0.04,1.85v21.13h-8.06v-39.41h4.81c0.4,0,0.73,0.02,1,0.05s0.51,0.1,0.73,0.2
		c0.22,0.1,0.42,0.24,0.62,0.42c0.2,0.18,0.42,0.42,0.68,0.73l18.74,23.67c-0.09-0.76-0.15-1.49-0.19-2.2
		c-0.04-0.71-0.05-1.38-0.05-2.01v-20.85H380.23z"/>
	<path class="st0" d="M407.71,463.62h14.01v16.63c-2.02,1.48-4.17,2.55-6.45,3.22s-4.67,1-7.15,1c-3.25,0-6.2-0.51-8.86-1.53
		c-2.66-1.02-4.94-2.42-6.83-4.22c-1.89-1.79-3.35-3.92-4.38-6.38c-1.03-2.46-1.54-5.13-1.54-8.02c0-2.94,0.49-5.64,1.46-8.1
		c0.97-2.46,2.37-4.58,4.18-6.37c1.81-1.79,4-3.17,6.57-4.17c2.57-0.99,5.44-1.49,8.62-1.49c1.64,0,3.18,0.13,4.63,0.41
		s2.77,0.64,3.99,1.11c1.22,0.47,2.33,1.03,3.34,1.68s1.91,1.35,2.71,2.11l-2.65,4.03c-0.42,0.63-0.95,1.02-1.61,1.16
		c-0.66,0.14-1.37-0.02-2.12-0.49c-0.72-0.43-1.4-0.81-2.04-1.12c-0.64-0.32-1.29-0.57-1.96-0.77s-1.37-0.34-2.11-0.43
		c-0.74-0.09-1.57-0.14-2.49-0.14c-1.71,0-3.25,0.3-4.63,0.91c-1.37,0.6-2.54,1.46-3.5,2.56c-0.96,1.1-1.71,2.42-2.23,3.96
		c-0.52,1.54-0.78,3.26-0.78,5.15c0,2.09,0.29,3.95,0.87,5.57s1.39,2.99,2.45,4.11c1.05,1.12,2.32,1.97,3.79,2.56
		c1.47,0.59,3.1,0.88,4.88,0.88c1.1,0,2.1-0.11,2.99-0.33c0.89-0.22,1.76-0.5,2.61-0.87v-5.98h-3.89c-0.58,0-1.03-0.15-1.35-0.46
		c-0.32-0.31-0.49-0.69-0.49-1.16V463.62z"/>
</g>
<g>
	<path class="st0" d="M8.34,312.98v58.6h410.23v-58.6H8.34z M216.56,350.25c-0.95,2.44-2.28,4.56-4.01,6.34
		c-1.73,1.79-3.81,3.18-6.25,4.18c-2.43,1-5.14,1.5-8.11,1.5c-2.96,0-5.65-0.5-8.09-1.5c-2.43-1-4.52-2.39-6.26-4.18
		c-1.74-1.79-3.09-3.9-4.04-6.34s-1.43-5.1-1.43-7.97c0-2.87,0.48-5.52,1.43-7.97s2.3-4.56,4.04-6.34c1.74-1.79,3.83-3.18,6.26-4.18
		s5.13-1.5,8.09-1.5c1.98,0,3.85,0.23,5.6,0.69c1.75,0.46,3.35,1.11,4.82,1.95c1.46,0.84,2.77,1.86,3.93,3.06
		c1.16,1.2,2.15,2.54,2.96,4.01c0.81,1.48,1.43,3.08,1.85,4.82c0.42,1.73,0.64,3.55,0.64,5.46
		C217.98,345.15,217.51,347.81,216.56,350.25z M249.98,328.52h-17.37v11.58h14.66v5.82h-14.66v15.93h-7.3v-39.11h24.67V328.52z"/>
	<path class="st0" d="M207.21,332.17c-1.07-1.19-2.36-2.1-3.88-2.73c-1.53-0.63-3.24-0.95-5.15-0.95c-1.91,0-3.63,0.31-5.15,0.95
		c-1.53,0.63-2.82,1.54-3.9,2.73c-1.07,1.19-1.9,2.64-2.47,4.34c-0.58,1.7-0.87,3.63-0.87,5.78c0,2.15,0.29,4.07,0.87,5.77
		c0.58,1.7,1.4,3.15,2.47,4.33c1.07,1.18,2.37,2.09,3.9,2.72c1.52,0.63,3.24,0.95,5.15,0.95c1.91,0,3.63-0.31,5.15-0.95
		c1.52-0.63,2.82-1.54,3.88-2.72c1.06-1.18,1.88-2.62,2.46-4.33c0.58-1.7,0.87-3.63,0.87-5.77c0-2.15-0.29-4.07-0.87-5.78
		C209.1,334.81,208.28,333.36,207.21,332.17z"/>
</g>
<g>
	<path class="st0" d="M62.71,265.01v34.79H41.49v-34.79l-33.16-56.7h18.71c1.84,0,3.3,0.43,4.36,1.29c1.07,0.86,1.96,1.96,2.67,3.3
		l12.94,26.62c1.09,2.09,2.07,4.05,2.95,5.87c0.88,1.82,1.65,3.61,2.32,5.37c0.63-1.8,1.35-3.61,2.17-5.43
		c0.82-1.82,1.77-3.76,2.86-5.81l12.81-26.62c0.29-0.54,0.65-1.09,1.07-1.63c0.42-0.54,0.91-1.04,1.48-1.48
		c0.57-0.44,1.21-0.79,1.95-1.07c0.73-0.27,1.54-0.41,2.42-0.41h18.84L62.71,265.01z"/>
	<path class="st0" d="M126.51,224.63v21.35h28.76v15.7h-28.76v21.79h37.55v16.33h-58.9v-91.49h58.9v16.33H126.51z"/>
	<path class="st0" d="M261.33,299.8h-16.45c-1.84,0-3.33-0.43-4.46-1.29c-1.13-0.86-1.99-1.96-2.57-3.3l-5.4-15.95h-34.79
		l-5.4,15.95c-0.46,1.17-1.29,2.23-2.48,3.17c-1.19,0.94-2.67,1.41-4.43,1.41h-16.58l35.42-91.49h21.73L261.33,299.8z
		 M227.61,264.82l-8.48-25.05c-0.63-1.59-1.3-3.46-2.01-5.62c-0.71-2.16-1.42-4.49-2.13-7c-0.63,2.55-1.3,4.92-2.01,7.1
		c-0.71,2.18-1.38,4.06-2.01,5.65l-8.41,24.93H227.61z"/>
	<path class="st0" d="M345.54,299.8h-19.21c-3.56,0-6.11-1.34-7.66-4.02l-15.2-26.56c-0.71-1.13-1.51-1.96-2.39-2.48
		c-0.88-0.52-2.13-0.79-3.77-0.79h-5.4v33.85h-21.22v-91.49h29.76c6.61,0,12.25,0.68,16.92,2.04c4.67,1.36,8.48,3.26,11.43,5.68
		c2.95,2.43,5.1,5.3,6.44,8.6c1.34,3.31,2.01,6.91,2.01,10.8c0,2.97-0.4,5.78-1.19,8.41c-0.8,2.64-1.97,5.08-3.52,7.32
		c-1.55,2.24-3.46,4.24-5.75,6c-2.28,1.76-4.91,3.2-7.88,4.33c1.38,0.71,2.68,1.6,3.89,2.67c1.21,1.07,2.3,2.33,3.26,3.8
		L345.54,299.8z M300.45,251.32c2.89,0,5.35-0.37,7.38-1.1c2.03-0.73,3.69-1.75,4.99-3.05c1.3-1.3,2.24-2.81,2.83-4.55
		c0.59-1.74,0.88-3.61,0.88-5.62c0-4.02-1.31-7.16-3.92-9.42c-2.62-2.26-6.67-3.39-12.15-3.39h-8.54v27.13H300.45z"/>
	<path class="st0" d="M405.95,226.9c-0.63,1-1.29,1.76-1.98,2.26c-0.69,0.5-1.58,0.75-2.67,0.75c-0.96,0-2-0.3-3.11-0.91
		c-1.11-0.61-2.37-1.29-3.77-2.04c-1.4-0.75-3-1.43-4.8-2.04c-1.8-0.61-3.85-0.91-6.15-0.91c-3.98,0-6.94,0.85-8.88,2.54
		c-1.95,1.7-2.92,3.99-2.92,6.88c0,1.84,0.58,3.37,1.76,4.58c1.17,1.21,2.71,2.26,4.62,3.14c1.9,0.88,4.08,1.69,6.53,2.42
		c2.45,0.73,4.95,1.55,7.5,2.45c2.55,0.9,5.06,1.96,7.5,3.17c2.45,1.21,4.63,2.76,6.53,4.65c1.9,1.88,3.44,4.18,4.62,6.88
		c1.17,2.7,1.76,5.96,1.76,9.76c0,4.23-0.73,8.19-2.2,11.87c-1.47,3.68-3.59,6.9-6.37,9.64c-2.78,2.74-6.22,4.9-10.3,6.47
		c-4.08,1.57-8.72,2.35-13.91,2.35c-2.85,0-5.75-0.29-8.7-0.88c-2.95-0.59-5.81-1.41-8.57-2.48c-2.76-1.07-5.36-2.33-7.79-3.8
		c-2.43-1.46-4.54-3.1-6.34-4.9l6.28-9.92c0.5-0.71,1.16-1.31,1.98-1.79s1.71-0.72,2.67-0.72c1.26,0,2.52,0.4,3.8,1.19
		c1.28,0.8,2.72,1.67,4.33,2.64c1.61,0.96,3.46,1.84,5.56,2.64c2.09,0.8,4.56,1.19,7.41,1.19c3.85,0,6.84-0.85,8.98-2.54
		s3.2-4.38,3.2-8.07c0-2.13-0.59-3.87-1.76-5.21c-1.17-1.34-2.71-2.45-4.62-3.33c-1.91-0.88-4.07-1.65-6.5-2.32
		c-2.43-0.67-4.92-1.41-7.47-2.23c-2.55-0.82-5.04-1.82-7.47-3.01c-2.43-1.19-4.59-2.76-6.5-4.71c-1.91-1.95-3.44-4.37-4.62-7.28
		c-1.17-2.91-1.76-6.5-1.76-10.77c0-3.43,0.69-6.78,2.07-10.05c1.38-3.27,3.41-6.17,6.09-8.73c2.68-2.55,5.97-4.59,9.86-6.12
		c3.89-1.53,8.35-2.29,13.38-2.29c2.8,0,5.54,0.22,8.19,0.66c2.66,0.44,5.18,1.09,7.57,1.95c2.39,0.86,4.62,1.88,6.69,3.08
		c2.07,1.19,3.92,2.54,5.56,4.05L405.95,226.9z"/>
</g>
<g>
	<path class="st0" d="M8.64,192.22V79.49h139.85V67.34l-7.91-6.22H8.64V4.62h152l45.2,35.88V136H65.7v18.08h140.13v38.14H8.64z"/>
	<path class="st0" d="M221.94,192.22V4.34h151.71l44.92,29.95v157.93H221.94z M361.78,65.08l-5.37-3.67H279V136h82.78V65.08z"/>
</g>
<g>
</g>
<g>
</g>
<g>
</g>
<g>
</g>
<g>
</g>
<g>
</g>
<g>
</g>
<g>
</g>
<g>
</g>
<g>
</g>
<g>
</g>
<g>
</g>
<g>
</g>
<g>
</g>
<g>
</g>
</svg>
